<svg width="142" height="142" viewBox="0 0 142 142" fill="none" xmlns="http://www.w3.org/2000/svg">
<g opacity="0.24">
<path opacity="0.68" d="M70.5831 141.166C51.8698 141.145 33.9289 133.702 20.6966 120.47C7.46426 107.237 0.0211724 89.2965 0 70.5831C0.0211724 51.8698 7.46426 33.9289 20.6966 20.6966C33.9289 7.46426 51.8698 0.0211724 70.5831 0C72.4551 0 74.2504 0.743715 75.574 2.06741C76.8977 3.3911 77.6415 5.18633 77.6415 7.05831C77.6415 8.9303 76.8977 10.7255 75.574 12.0492C74.2504 13.3729 72.4551 14.1166 70.5831 14.1166C55.6125 14.1336 41.2597 20.0879 30.6738 30.6738C20.0879 41.2597 14.1336 55.6125 14.1166 70.5831C14.1336 85.5538 20.0879 99.9066 30.6738 110.492C41.2597 121.078 55.6125 127.033 70.5831 127.05C85.5538 127.033 99.9066 121.078 110.492 110.492C121.078 99.9066 127.033 85.5538 127.05 70.5831C127.05 68.7112 127.793 66.9159 129.117 65.5922C130.441 64.2685 132.236 63.5248 134.108 63.5248C135.98 63.5248 137.775 64.2685 139.099 65.5922C140.423 66.9159 141.166 68.7112 141.166 70.5831C141.145 89.2965 133.702 107.237 120.47 120.47C107.237 133.702 89.2965 141.145 70.5831 141.166Z" fill="url(#paint0_linear_247_4904)"/>
</g>
<path d="M134.112 77.6415C132.24 77.6415 130.445 76.8977 129.122 75.5741C127.798 74.2504 127.054 72.4551 127.054 70.5831C127.037 55.6125 121.083 41.2597 110.497 30.6738C99.9111 20.0879 85.5583 14.1336 70.5876 14.1166C68.7156 14.1166 66.9204 13.3729 65.5967 12.0492C64.273 10.7255 63.5293 8.9303 63.5293 7.05831C63.5293 5.18633 64.273 3.3911 65.5967 2.06741C66.9204 0.743715 68.7156 0 70.5876 0C89.3009 0.0211725 107.242 7.46426 120.474 20.6966C133.706 33.9289 141.15 51.8698 141.171 70.5831C141.171 72.4551 140.427 74.2504 139.103 75.5741C137.78 76.8977 135.984 77.6415 134.112 77.6415Z" fill="url(#paint1_linear_247_4904)"/>
<defs>
<linearGradient id="paint0_linear_247_4904" x1="69.0146" y1="70.5832" x2="61.4322" y2="208.044" gradientUnits="userSpaceOnUse">
<stop stop-color="#FD8A48"/>
<stop offset="0.490385" stop-color="#EA0707"/>
<stop offset="1" stop-color="#F67606"/>
</linearGradient>
<linearGradient id="paint1_linear_247_4904" x1="101.487" y1="38.8208" x2="97.317" y2="114.424" gradientUnits="userSpaceOnUse">
<stop stop-color="#FD8A48"/>
<stop offset="0.490385" stop-color="#EA0707"/>
<stop offset="1" stop-color="#F67606"/>
</linearGradient>
</defs>
</svg>
