<svg width="40" height="18" viewBox="0 0 40 18" fill="none" xmlns="http://www.w3.org/2000/svg">
<path d="M7.82609e-05 17.2559V0.215858H3.12008V16.2959L1.41608 14.5439H11.2081V17.2559H7.82609e-05ZM18.6171 17.5439C17.3531 17.5439 16.2411 17.2719 15.2811 16.7279C14.3371 16.1679 13.6011 15.3839 13.0731 14.3759C12.5611 13.3679 12.3051 12.1919 12.3051 10.8479C12.3051 9.48786 12.5611 8.31186 13.0731 7.31986C13.6011 6.31186 14.3371 5.53586 15.2811 4.99186C16.2411 4.43186 17.3531 4.15186 18.6171 4.15186C19.8811 4.15186 20.9851 4.43186 21.9291 4.99186C22.8731 5.53586 23.6011 6.31186 24.1131 7.31986C24.6411 8.31186 24.9051 9.48786 24.9051 10.8479C24.9051 12.1919 24.6411 13.3679 24.1131 14.3759C23.6011 15.3839 22.8731 16.1679 21.9291 16.7279C20.9851 17.2719 19.8811 17.5439 18.6171 17.5439ZM18.6171 15.0479C19.6091 15.0479 20.3691 14.6799 20.8971 13.9439C21.4411 13.2079 21.7131 12.1759 21.7131 10.8479C21.7131 9.53586 21.4411 8.51186 20.8971 7.77586C20.3691 7.02386 19.6091 6.64786 18.6171 6.64786C17.6251 6.64786 16.8571 7.02386 16.3131 7.77586C15.7691 8.51186 15.4971 9.53586 15.4971 10.8479C15.4971 12.1759 15.7691 13.2079 16.3131 13.9439C16.8571 14.6799 17.6251 15.0479 18.6171 15.0479ZM27.2757 17.2559V4.43986H30.1557L30.2757 7.99186L30.0117 7.94386C30.2037 6.71186 30.5637 5.82386 31.0917 5.27986C31.6357 4.71986 32.3717 4.43986 33.2997 4.43986H34.4757V7.07986H33.2757C32.6197 7.07986 32.0757 7.17586 31.6437 7.36786C31.2117 7.55986 30.8837 7.86386 30.6597 8.27986C30.4517 8.67986 30.3477 9.20786 30.3477 9.86386V17.2559H27.2757ZM36.4632 17.2559V4.43986H39.5352V17.2559H36.4632ZM36.4152 2.73586V-0.000141621H39.6072V2.73586H36.4152Z" fill="url(#paint0_linear_343_372)"/>
<defs>
<linearGradient id="paint0_linear_343_372" x1="11.6991" y1="8.25583" x2="71.8003" y2="25.5802" gradientUnits="userSpaceOnUse">
<stop stop-color="#FD8A48"/>
<stop offset="0.748526" stop-color="#EA0707"/>
<stop offset="1" stop-color="#F67606"/>
</linearGradient>
</defs>
</svg>
