<svg width="36" height="32" viewBox="0 0 36 32" fill="none" xmlns="http://www.w3.org/2000/svg">
<path d="M26.613 9.6637H24.0092C23.7051 8.65632 22.7691 7.91806 21.6699 7.91806H19.5966L18.9656 5.84024L18.601 4.64006C19.6074 4.37335 20.3497 3.45313 20.3497 2.35899C20.3497 1.05598 19.2973 0 17.9996 0C16.7019 0 15.6495 1.05639 15.6495 2.35899C15.6495 3.45313 16.3918 4.37335 17.3982 4.64006L17.0336 5.84024L16.4026 7.91806H14.3297C13.2305 7.91806 12.2945 8.65673 11.9904 9.6637H9.38655C7.28251 9.6637 5.37015 10.5273 3.98479 11.9179C2.77831 13.1289 1.96999 14.7416 1.78151 16.5326C0.756301 16.8242 0 17.7746 0 18.8932V22.7701C0 23.8887 0.756301 24.8391 1.78151 25.1307C1.97039 26.9217 2.77831 28.5344 3.98479 29.7458C5.37015 31.1364 7.28291 32 9.38655 32H11.4946V29.7828H9.38655C7.89196 29.7828 6.53221 29.1682 5.54622 28.1785C4.56022 27.1888 3.94798 25.824 3.94798 24.3237V17.3404C3.94798 15.8401 4.56022 14.4753 5.54622 13.4856C6.53221 12.4959 7.89196 11.8813 9.38655 11.8813H26.6134C28.108 11.8813 29.4678 12.4959 30.4538 13.4856C31.4398 14.4753 32.052 15.8401 32.052 17.3404V24.3237C32.052 25.824 31.4398 27.1888 30.4538 28.1785C29.4678 29.1682 28.108 29.7828 26.6134 29.7828H24.505V32H26.6134C28.7175 32 30.6299 31.1364 32.0152 29.7458C33.2213 28.5352 34.0296 26.9217 34.2185 25.1307C35.2437 24.8391 36 23.8891 36 22.7701V18.8932C36 17.7742 35.2437 16.8242 34.2185 16.5326C34.03 14.7416 33.2217 13.1289 32.0152 11.9179C30.6299 10.5273 28.7175 9.6637 26.6134 9.6637H26.613ZM11.4946 32H24.6218L24.505 29.7828H11.3165L11.4946 32Z" fill="url(#paint0_linear_358_1977)"/>
<defs>
<linearGradient id="paint0_linear_358_1977" x1="17.6" y1="16" x2="16.0712" y2="47.1799" gradientUnits="userSpaceOnUse">
<stop stop-color="#FD8A48"/>
<stop offset="0.490385" stop-color="#EA0707"/>
<stop offset="1" stop-color="#F67606"/>
</linearGradient>
</defs>
</svg>
