<svg width="50" height="50" viewBox="0 0 50 50" fill="none" xmlns="http://www.w3.org/2000/svg">
<rect width="50" height="50" rx="12" fill="url(#paint0_linear_245_4857)"/>
<path d="M32.8631 17.1515C32.4463 16.7237 31.8294 16.5643 31.2541 16.7321L17.8403 20.6328C17.2334 20.8014 16.8032 21.2854 16.6874 21.9003C16.569 22.5261 16.9825 23.3205 17.5227 23.6527L21.7169 26.2305C22.1471 26.4948 22.7023 26.4285 23.0583 26.0694L27.8611 21.2368C28.1029 20.9851 28.503 20.9851 28.7448 21.2368C28.9866 21.48 28.9866 21.8743 28.7448 22.126L23.9337 26.9595C23.5768 27.3177 23.5101 27.8755 23.7728 28.3084L26.3355 32.5446C26.6356 33.048 27.1525 33.3332 27.7194 33.3332C27.7861 33.3332 27.8611 33.3332 27.9278 33.3248C28.5781 33.2409 29.0949 32.7963 29.2867 32.1671L33.2633 18.7705C33.4384 18.2001 33.28 17.5793 32.8631 17.1515" fill="white"/>
<defs>
<linearGradient id="paint0_linear_245_4857" x1="24.4444" y1="25" x2="21.7588" y2="73.6876" gradientUnits="userSpaceOnUse">
<stop stop-color="#FD8A48"/>
<stop offset="0.490385" stop-color="#EA0707"/>
<stop offset="1" stop-color="#F67606"/>
</linearGradient>
</defs>
</svg>
