<svg width="20" height="20" viewBox="0 0 20 20" fill="none" xmlns="http://www.w3.org/2000/svg">
<g clip-path="url(#clip0_245_4818)">
<path d="M10 0C4.48047 0 0 4.48047 0 10C0 15.5195 4.48047 20 10 20C15.5195 20 20 15.5195 20 10C20 4.48047 15.5195 0 10 0Z" fill="#1ED760"/>
<path d="M16.3945 8.99609C16.1836 8.99609 16.0547 8.94531 15.875 8.83984C13.0039 7.125 7.87109 6.71484 4.54688 7.64063C4.40234 7.67969 4.21875 7.74609 4.02734 7.74609C3.49609 7.74609 3.08594 7.33203 3.08594 6.79297C3.08594 6.24609 3.42578 5.93359 3.78906 5.82812C5.20703 5.41406 6.79688 5.21484 8.52734 5.21484C11.4727 5.21484 14.5547 5.82813 16.8086 7.14062C17.125 7.32031 17.3281 7.57031 17.3281 8.05078C17.332 8.60547 16.8867 8.99609 16.3945 8.99609ZM15.1445 12.0703C14.9336 12.0703 14.793 11.9766 14.6484 11.9023C12.1289 10.4102 8.37109 9.80859 5.02734 10.7187C4.83203 10.7695 4.73047 10.8242 4.54688 10.8242C4.11719 10.8242 3.76563 10.4727 3.76563 10.043C3.76563 9.61328 3.97656 9.32422 4.39063 9.20703C5.51172 8.89062 6.65625 8.66016 8.33594 8.66016C10.9531 8.66016 13.4805 9.30859 15.4727 10.4961C15.8008 10.6914 15.9297 10.9414 15.9297 11.2891C15.9219 11.7187 15.5859 12.0703 15.1445 12.0703ZM14.0586 14.7148C13.8906 14.7148 13.7852 14.6641 13.6289 14.5703C11.1133 13.0547 8.18359 12.9883 5.29297 13.582C5.13672 13.6211 4.92969 13.6875 4.8125 13.6875C4.42187 13.6875 4.17578 13.3789 4.17578 13.0508C4.17578 12.6367 4.42188 12.4375 4.72266 12.375C8.02344 11.6445 11.3984 11.7109 14.2773 13.4297C14.5234 13.5859 14.668 13.7266 14.668 14.0937C14.668 14.4609 14.3867 14.7148 14.0586 14.7148Z" fill="black"/>
</g>
<defs>
<clipPath id="clip0_245_4818">
<rect width="20" height="20" fill="white"/>
</clipPath>
</defs>
</svg>
